<svg width="24" height="25" viewBox="0 0 24 25" fill="none" xmlns="http://www.w3.org/2000/svg">
<path d="M21 3.77393H5C4.73478 3.77393 4.48043 3.87928 4.29289 4.06682C4.10536 4.25436 4 4.50871 4 4.77393V7.36393C4 7.88693 4.213 8.40093 4.583 8.77093L10 14.1879V21.7739C10.0002 21.9443 10.0439 22.1118 10.1269 22.2606C10.2099 22.4093 10.3295 22.5345 10.4744 22.6241C10.6193 22.7137 10.7847 22.7649 10.9549 22.7727C11.1251 22.7806 11.2945 22.7448 11.447 22.6689L15.447 20.6689C15.786 20.4989 16 20.1529 16 19.7739V14.1879L21.417 8.77093C21.787 8.40093 22 7.88693 22 7.36393V4.77393C22 4.50871 21.8946 4.25436 21.7071 4.06682C21.5196 3.87928 21.2652 3.77393 21 3.77393ZM14.293 13.0669C14.2 13.1596 14.1262 13.2698 14.0759 13.3912C14.0256 13.5125 13.9998 13.6426 14 13.7739V19.1559L12 20.1559V13.7739C12.0002 13.6426 11.9744 13.5125 11.9241 13.3912C11.8738 13.2698 11.8 13.1596 11.707 13.0669L6 7.36393V5.77393H20.001L20.003 7.35693L14.293 13.0669Z" fill="#686868"/>
</svg>
